<svg xmlns="http://www.w3.org/2000/svg" shape-rendering="geometricPrecision" text-rendering="geometricPrecision" image-rendering="optimizeQuality" fill-rule="evenodd" clip-rule="evenodd" viewBox="0 0 512 420.16"><path fill-rule="nonzero" d="M74.31 0h363.38C478.59 0 512 33.41 512 74.31v271.54c0 40.9-33.41 74.31-74.31 74.31H74.31C33.41 420.16 0 386.75 0 345.85V74.31C0 33.41 33.41 0 74.31 0zm182.02 210.19c0-24.9 4.66-43.07 13.98-54.51 9.32-11.43 26.14-17.15 50.47-17.15 24.32 0 41.14 5.72 50.46 17.15 9.32 11.44 13.98 29.61 13.98 54.51 0 12.38-.98 22.79-2.95 31.24-1.96 8.45-5.35 15.8-10.16 22.07-4.8 6.26-11.43 10.84-19.87 13.76-8.45 2.91-18.94 4.37-31.46 4.37-12.53 0-23.02-1.46-31.46-4.37-8.45-2.92-15.08-7.5-19.89-13.76-4.8-6.27-8.19-13.62-10.15-22.07-1.97-8.45-2.95-18.86-2.95-31.24zm46.96-22.72v56.8h18.14c5.97 0 10.3-.69 13-2.08 2.7-1.38 4.04-4.54 4.04-9.5v-56.8h-18.35c-5.83 0-10.09.69-12.78 2.08-2.7 1.38-4.05 4.55-4.05 9.5zm-126.26 31.46v59.42h-43.7V141.81h43.7v55.71h.87l23.59-55.71h47.19l-32.77 67.07 33.86 69.47h-47.19l-24.68-59.42h-.87zM437.69 35.92H74.31c-21.08 0-38.39 17.31-38.39 38.39v271.54c0 21.09 17.31 38.4 38.39 38.4h363.38c21.08 0 38.39-17.31 38.39-38.4V74.31c0-21.08-17.31-38.39-38.39-38.39z"/></svg>